<?xml version="1.0" encoding="utf-8"?>
<!-- Generator: Adobe Illustrator 28.2.0, SVG Export Plug-In . SVG Version: 6.00 Build 0)  -->
<svg version="1.1" id="Layer_1" xmlns="http://www.w3.org/2000/svg" xmlns:xlink="http://www.w3.org/1999/xlink" x="0px" y="0px"
	 viewBox="0 0 360 360" style="enable-background:new 0 0 360 360;" xml:space="preserve">
<style type="text/css">
	.st0{fill:#603F99;}
	.st1{fill:#98A7D5;}
</style>
<g>
	<path class="st0" d="M63.48,153.92c13.57,0,20.9,5.08,20.9,15.24c0,11.41-6.91,18.24-23.9,18.24H8.61l11.07-14.32h42.13
		c4.08,0,5.91-1.17,5.91-4.08c0-2.83-1.83-4-5.91-4H31.5c-14.32,0-20.9-6.41-20.9-15.99c0-10.49,6.99-17.32,23.9-17.32h59.09
		l-11.08,14.49H33.17c-4,0-5.91,1-5.91,3.83c0,2.83,1.92,3.91,5.91,3.91H63.48z"/>
	<path class="st0" d="M171.06,187.39h-23.07l-12.41-14.74H109.1v14.74H91.87v-28.48h48.46c5.33,0,9.49-2.41,9.49-6.25
		c0-4.33-3.58-6.49-9.49-6.49H91.87l11.24-14.49h35.81c12.66,0,28.64,4,28.64,19.9c0,8.66-5.41,15.82-14.57,17.65
		c1.92,1.42,4,3.41,7.83,7.33L171.06,187.39z"/>
	<path class="st0" d="M214.51,187.39h-37.31v-34.72h17.32v20.4h19.98c9.58,0,16.49-5.33,16.49-13.32c0-7.83-7.16-13.57-16.49-13.57
		l-43.63,0l10.99-14.49l32.64,0c19.48,0,33.56,11.24,33.56,27.31C248.07,175.15,233.83,187.39,214.51,187.39z"/>
	<path class="st0" d="M308.43,153.92c13.57,0,20.9,5.08,20.9,15.24c0,11.41-6.91,18.24-23.9,18.24h-59.97l11.08-14.32h50.23
		c4.08,0,5.91-1.17,5.91-4.08c0-2.83-1.83-4-5.91-4h-30.31c-14.32,0-20.9-6.41-20.9-15.99c0-10.49,6.99-17.32,23.9-17.32h48.38
		l-11.07,14.49h-38.64c-4,0-5.91,1-5.91,3.83c0,2.83,1.92,3.91,5.91,3.91H308.43z"/>
</g>
<g>
	<path class="st1" d="M203.2,216.65c0,6.88-5.35,10.95-13.76,10.95h-12.23V205.7h12.23C197.85,205.7,203.2,209.77,203.2,216.65z
		 M196.7,216.65c0-3.88-3.06-5.88-7.76-5.88h-5.35v11.76h5.35C193.63,222.53,196.7,220.53,196.7,216.65z"/>
	<path class="st1" d="M230.45,222.72v4.88h-23.36V205.7h23.02v4.88h-16.73v3.6h13.79v4.66h-13.79v3.88H230.45z"/>
	<path class="st1" d="M258.42,220.75c0,4.5-4.16,7.57-12.1,7.57c-5.63,0-10.35-1.53-13.79-4.29l3.35-3.94
		c2.6,2.19,6.19,3.41,10.57,3.41c3.75,0,5.63-0.69,5.63-2.13c0-1.41-1.75-1.88-6.26-2.25c-6.51-0.56-12.42-2-12.42-6.88
		c0-4.69,5.07-7.26,12.01-7.26c4.69,0,9.01,1.13,12.01,3.25l-3.22,3.97c-2.44-1.72-5.38-2.41-8.79-2.44c-2.56,0-5.66,0.41-5.66,1.97
		c0,1.47,2.53,1.66,6.44,1.97C253.35,214.31,258.42,215.71,258.42,220.75z"/>
	<path class="st1" d="M262.02,227.6V205.7h6.38v21.89H262.02z"/>
	<path class="st1" d="M299.37,223.47c-2.35,2.91-6.66,4.85-12.51,4.85c-8.98,0-14.54-4.25-14.54-11.67
		c0-7.41,5.57-11.67,14.54-11.67c5.41,0,9.32,1.91,11.6,4.03l-4.66,3.44c-1.88-1.69-3.85-2.44-6.79-2.44
		c-5.32,0-8.23,2.35-8.23,6.63c0,4.32,3,6.66,8.32,6.66c2.69,0,4.82-0.53,6.35-1.94v-1.97h-7.26v-4.47h13.17V223.47z"/>
	<path class="st1" d="M329.34,205.7v21.89h-5.6l-14.14-14.39v14.39h-6.16V205.7h6.76l12.98,13.39V205.7H329.34z"/>
</g>
<rect x="343.75" y="131.69" class="st1" width="7.64" height="95.94"/>
</svg>
