<?xml version="1.0" encoding="utf-8"?>
<!-- Generator: Adobe Illustrator 26.5.0, SVG Export Plug-In . SVG Version: 6.00 Build 0)  -->
<svg version="1.1" id="Layer_1" xmlns:serif="http://www.serif.com/"
	 xmlns="http://www.w3.org/2000/svg" xmlns:xlink="http://www.w3.org/1999/xlink" x="0px" y="0px" viewBox="0 0 720 451.2"
	 style="enable-background:new 0 0 720 451.2;" xml:space="preserve">
<style type="text/css">
	.st0{fill:#FFFFFF;}
	.st1{fill-rule:evenodd;clip-rule:evenodd;fill:#FFFFFF;}
</style>
<g>
	<path class="st0" d="M201.6,367.4c9.6,0,18.7-0.9,27.3-2.8c8.7-1.9,16.4-4.9,23-9.4c6.5-4.3,11.9-10.2,15.8-17.7
		c3.9-7.4,5.8-17.1,5.8-28.7c0-22.8-6.4-39-19.2-48.9c-12.8-9.7-29.9-14.5-50.9-14.5h-106v122L201.6,367.4L201.6,367.4z
		 M196.2,178.9c17.3,0,31.6-4.1,42.9-12.4c11.2-8.2,16.6-21.7,16.6-40.3c0-10.3-1.8-18.8-5.4-25.4c-3.8-6.6-8.8-11.8-15-15.4
		c-6.2-3.8-13.3-6.4-21.5-7.8c-8-1.6-16.4-2.2-25.1-2.2H97.5v103.5H196.2L196.2,178.9z M208.8,0c21.2,0,40.3,1.8,57.8,5.6
		c17.4,3.7,32.2,9.8,44.7,18.3c12.3,8.4,22,19.6,28.9,33.8c6.7,13.9,10.1,31.4,10.1,52c0,22.3-5,40.9-15.2,55.8
		C325,180.3,310,192.5,290,202c27.2,7.8,47.4,21.6,60.8,41.2c13.4,19.8,20,43.4,20,71.1c0,22.5-4.3,41.8-12.9,58.1
		c-8.7,16.5-20.5,29.8-35,40.1c-14.7,10.4-31.5,18-50.4,23c-18.7,4.9-38,7.4-57.9,7.4H0V0L208.8,0L208.8,0z"/>
	<path class="st0" d="M611,197.5c-10.5-11.6-28.2-17.8-49.8-17.8c-14.1,0-25.7,2.4-35.1,7.2c-9.1,4.8-16.6,10.7-22.3,17.7
		c-5.7,7.1-9.5,14.6-11.8,22.6c-2.2,7.8-3.6,14.9-4,21.1h143.3C629.2,225.8,621.6,209.2,611,197.5L611,197.5z M509.8,366
		c13.2,12.9,32.3,19.4,57,19.4c17.8,0,33.1-4.5,46-13.4c12.8-8.9,20.5-18.5,23.5-28.4h77.6c-12.5,38.6-31.4,66.2-57.2,82.8
		c-25.5,16.7-56.6,24.9-92.8,24.9c-25.3,0-48-4.1-68.4-12.1c-20.4-8.2-37.4-19.6-51.8-34.5c-14-15-24.8-32.7-32.6-53.4
		c-7.7-20.7-11.5-43.6-11.5-68.4c0-24,4-46.4,11.8-67.1c8-20.8,19.1-38.7,33.6-53.7c14.6-15.1,31.8-27,51.9-35.8
		c20.1-8.7,42.3-13,66.9-13c27.1,0,50.9,5.2,71.3,15.8c20.3,10.5,36.9,24.7,50,42.5c13.1,17.8,22.4,38.1,28.2,60.9
		c5.8,22.8,7.8,46.5,6.1,71.4H488C488,329.1,496.6,353.1,509.8,366L509.8,366z"/>
	<rect x="470" y="29.7" class="st1" width="179.5" height="43.7"/>
</g>
</svg>
