<?xml version="1.0" encoding="utf-8"?>
<!-- Generator: Adobe Illustrator 25.4.1, SVG Export Plug-In . SVG Version: 6.00 Build 0)  -->
<svg version="1.1" id="Layer_1" xmlns="http://www.w3.org/2000/svg" xmlns:xlink="http://www.w3.org/1999/xlink" x="0px" y="0px"
	 viewBox="0 0 360 360" style="enable-background:new 0 0 360 360;" xml:space="preserve">
<style type="text/css">
	.st0{fill:#604098;}
</style>
<g>
	<g>
		<g>
			<g>
				<path class="st0" d="M304.25,251.19H55.75c-11.99,0-21.75-7.41-21.75-16.51V125.32c0-9.1,9.76-16.51,21.75-16.51h248.5
					c11.99,0,21.75,7.41,21.75,16.51v109.36C326,243.78,316.24,251.19,304.25,251.19z M55.75,110.14
					c-11.03,0-20.01,6.81-20.01,15.19v109.36c0,8.37,8.98,15.19,20.01,15.19h248.5c11.03,0,20.01-6.81,20.01-15.19V125.32
					c0-8.37-8.98-15.19-20.01-15.19H55.75z"/>
				<path class="st0" d="M304.25,255.37H55.75c-15.03,0-27.25-9.28-27.25-20.68V125.32c0-11.4,12.22-20.68,27.25-20.68h248.5
					c15.03,0,27.25,9.28,27.25,20.68v109.36C331.5,246.08,319.28,255.37,304.25,255.37z M55.75,114.31c-8,0-14.51,4.94-14.51,11.01
					v109.36c0,6.07,6.51,11,14.51,11h248.5c8,0,14.51-4.93,14.51-11V125.32c0-6.07-6.51-11.01-14.51-11.01H55.75z"/>
			</g>
			<g>
				<path class="st0" d="M304.25,253.28H55.75c-13.51,0-24.51-8.34-24.51-18.6V125.32c0-10.25,11-18.6,24.51-18.6h248.5
					c13.51,0,24.51,8.34,24.51,18.6v109.36C328.76,244.93,317.76,253.28,304.25,253.28z M55.75,112.22
					c-9.52,0-17.26,5.88-17.26,13.1v109.36c0,7.22,7.74,13.1,17.26,13.1h248.5c9.52,0,17.26-5.88,17.26-13.1V125.32
					c0-7.22-7.74-13.1-17.26-13.1H55.75z"/>
				<path class="st0" d="M304.25,257.45H55.75c-16.55,0-30.01-10.22-30.01-22.78V125.32c0-12.56,13.46-22.78,30.01-22.78h248.5
					c16.55,0,30,10.22,30,22.78v109.36C334.26,247.24,320.8,257.45,304.25,257.45z M55.75,116.41c-6.48,0-11.76,4-11.76,8.92v109.36
					c0,4.93,5.27,8.92,11.76,8.92h248.5c6.48,0,11.76-4,11.76-8.92V125.32c0-4.92-5.27-8.92-11.76-8.92H55.75z"/>
			</g>
		</g>
	</g>
	<g>
		<g>
			<polygon class="st0" points="179.13,181.15 45.28,118.61 46.15,117.53 180,180.07 			"/>
			<polygon class="st0" points="180,183.89 41.67,119.26 45.3,114.79 183.6,179.42 			"/>
		</g>
		<g>
			<polygon class="st0" points="179.99,183.89 41.68,119.26 45.28,114.79 183.62,179.42 			"/>
			<path class="st0" d="M180.84,186.62L38.07,119.91l6.34-7.87l142.81,66.72L180.84,186.62z M45.28,118.61l133.85,62.54l0.87-1.07
				L46.15,117.53L45.28,118.61z"/>
		</g>
	</g>
	<g>
		<g>
			<polygon class="st0" points="183.02,179.11 182.16,178.07 310.59,116.44 311.46,117.48 			"/>
			<polygon class="st0" points="182.21,181.85 178.53,177.46 311.4,113.7 315.08,118.09 			"/>
		</g>
		<g>
			<polygon class="st0" points="182.23,181.78 178.63,177.47 311.39,113.77 314.99,118.08 			"/>
			<path class="st0" d="M181.41,184.53l-6.41-7.67l137.2-65.84l6.41,7.67L181.41,184.53z M182.26,178.09l0.79,0.95l128.32-61.57
				l-0.79-0.95L182.26,178.09z"/>
		</g>
	</g>
	<g>
		<g>
			<polygon class="st0" points="310.3,244 224.74,158.46 226.06,157.7 311.63,243.24 			"/>
			<polygon class="st0" points="309.8,246.79 221.06,158.08 226.56,154.91 315.3,243.62 			"/>
		</g>
		<g>
			<polygon class="st0" points="309.79,246.79 221.06,158.08 226.56,154.91 315.3,243.63 			"/>
			<path class="st0" d="M309.29,249.57l-91.9-91.87l9.68-5.59l91.92,91.9L309.29,249.57z M224.74,158.46L310.3,244l1.32-0.76
				l-85.56-85.54L224.74,158.46z"/>
		</g>
	</g>
	<g>
		<g>
			<polygon class="st0" points="47.88,244.1 46.6,243.36 129.21,160.78 130.49,161.52 			"/>
			<polygon class="st0" points="48.39,246.88 42.92,243.75 128.7,158 134.17,161.12 			"/>
		</g>
		<g>
			<polygon class="st0" points="48.37,246.79 43.05,243.73 128.72,158.08 134.03,161.15 			"/>
			<path class="st0" d="M48.87,249.57l-9.51-5.45l88.85-88.84l9.49,5.48L48.87,249.57z M46.73,243.35l1.13,0.65l82.5-82.47
				l-1.13-0.65L46.73,243.35z"/>
		</g>
	</g>
</g>
<g>
</g>
<g>
</g>
<g>
</g>
<g>
</g>
<g>
</g>
</svg>
