<?xml version="1.0" encoding="utf-8"?>
<!-- Generator: Adobe Illustrator 26.5.0, SVG Export Plug-In . SVG Version: 6.00 Build 0)  -->
<svg version="1.1" id="Layer_1" xmlns="http://www.w3.org/2000/svg" xmlns:xlink="http://www.w3.org/1999/xlink" x="0px" y="0px"
	 viewBox="0 0 705.6 462.2" style="enable-background:new 0 0 705.6 462.2;" xml:space="preserve">
<style type="text/css">
	.st0{fill:#FFFFFF;}
</style>
<g>
	<path class="st0" d="M352.8,287.2L653.3,7.3c-10.5-4.5-22-7-34.2-7H86.5c-12.1,0-23.7,2.5-34.2,7L352.8,287.2z"/>
	<path class="st0" d="M705.6,86.8c0-19.7-6.6-37.8-17.6-52.3L501.7,207.9l188.3,217c9.8-14,15.6-31.1,15.6-49.5V86.8z"/>
	<path class="st0" d="M469.8,237.6l-102.2,95.2c-4.2,3.9-9.5,5.8-14.8,5.8s-10.6-1.9-14.8-5.8L229,231.3L40.4,448.6
		c13.4,8.4,29.2,13.3,46.1,13.3h532.6c13.6,0,26.4-3.1,37.9-8.7L469.8,237.6z"/>
	<path class="st0" d="M17.6,34.5C6.6,49,0,67.1,0,86.8v288.6c0,14.9,3.8,29,10.5,41.3l186.7-215.1L17.6,34.5z"/>
</g>
</svg>
