<?xml version="1.0" encoding="utf-8"?>
<!-- Generator: Adobe Illustrator 25.4.1, SVG Export Plug-In . SVG Version: 6.00 Build 0)  -->
<svg version="1.1" id="Layer_1" xmlns="http://www.w3.org/2000/svg" xmlns:xlink="http://www.w3.org/1999/xlink" x="0px" y="0px"
	 viewBox="0 0 360 360" style="enable-background:new 0 0 360 360;" xml:space="preserve">
<style type="text/css">
	.st0{fill:#604098;}
</style>
<g>
	<path class="st0" d="M253.36,347.73H106.64c-19.44,0-35.25-17.51-35.25-39.04V51.31c0-21.53,15.81-39.04,35.25-39.04h146.72
		c19.44,0,35.26,17.51,35.26,39.04v257.38C288.61,330.22,272.8,347.73,253.36,347.73z M106.64,43.17c-1.53,0-4.34,3.09-4.34,8.14
		v257.38c0,5.05,2.81,8.14,4.34,8.14h146.72c1.53,0,4.35-3.09,4.35-8.14V51.31c0-5.05-2.82-8.14-4.35-8.14H106.64z"/>
	<circle class="st0" cx="180" cy="271.28" r="21.4"/>
</g>
<g>
</g>
<g>
</g>
<g>
</g>
<g>
</g>
<g>
</g>
</svg>
