<?xml version="1.0" encoding="UTF-8"?>
<svg id="Layer_1" data-name="Layer 1" xmlns="http://www.w3.org/2000/svg" viewBox="0 0 288.19 81.24">
  <defs>
    <style>
      .cls-1 {
        fill: #fff;
        stroke-width: 0px;
      }
    </style>
  </defs>
  <g>
    <path class="cls-1" d="M46.13,18.69c11.41,0,17.57,4.27,17.57,12.81,0,9.59-5.81,15.33-20.09,15.33H0l9.31-12.04h35.42c3.43,0,4.97-.98,4.97-3.43s-1.54-3.36-4.97-3.36h-25.48C7.21,28,1.68,22.61,1.68,14.56,1.68,5.74,7.56,0,21.77,0h49.67l-9.31,12.18H20.65c-3.36,0-4.97.84-4.97,3.22s1.61,3.29,4.97,3.29h25.48Z"/>
    <path class="cls-1" d="M136.58,46.83h-19.39l-10.43-12.39h-22.26v12.39h-14.49v-23.94h40.74c4.48,0,7.98-2.03,7.98-5.25,0-3.64-3.01-5.46-7.98-5.46h-40.74L79.45,0h30.1c10.64,0,24.08,3.36,24.08,16.73,0,7.28-4.55,13.3-12.25,14.84,1.61,1.19,3.36,2.87,6.58,6.16l8.61,9.1Z"/>
    <path class="cls-1" d="M173.11,46.83h-31.36v-29.19h14.56v17.15h16.8c8.05,0,13.86-4.48,13.86-11.2s-6.02-11.41-13.86-11.41h-36.68S145.67,0,145.67,0h27.44c16.38,0,28.21,9.45,28.21,22.96s-11.97,23.87-28.21,23.87Z"/>
    <path class="cls-1" d="M252.07,18.69c11.41,0,17.57,4.27,17.57,12.81,0,9.59-5.81,15.33-20.09,15.33h-50.42l9.31-12.04h42.23c3.43,0,4.97-.98,4.97-3.43s-1.54-3.36-4.97-3.36h-25.48c-12.04,0-17.57-5.39-17.57-13.44,0-8.82,5.88-14.56,20.09-14.56h40.67l-9.31,12.18h-32.48c-3.36,0-4.97.84-4.97,3.22s1.61,3.29,4.97,3.29h25.48Z"/>
  </g>
  <g>
    <path class="cls-1" d="M163.6,71.44c0,5.79-4.5,9.2-11.57,9.2h-10.28v-18.41h10.28c7.07,0,11.57,3.42,11.57,9.2ZM158.13,71.44c0-3.26-2.58-4.94-6.52-4.94h-4.5v9.89h4.5c3.94,0,6.52-1.68,6.52-4.94Z"/>
    <path class="cls-1" d="M186.51,76.54v4.1h-19.64v-18.41h19.35v4.1h-14.07v3.02h11.6v3.92h-11.6v3.26h14.36Z"/>
    <path class="cls-1" d="M210.02,74.88c0,3.79-3.5,6.36-10.18,6.36-4.73,0-8.7-1.29-11.6-3.6l2.81-3.31c2.18,1.84,5.21,2.87,8.89,2.87,3.16,0,4.73-.58,4.73-1.79s-1.47-1.58-5.26-1.89c-5.47-.47-10.44-1.68-10.44-5.79s4.26-6.1,10.1-6.1c3.94,0,7.57.95,10.1,2.73l-2.71,3.34c-2.05-1.45-4.52-2.02-7.39-2.05-2.16,0-4.76.34-4.76,1.66,0,1.24,2.13,1.39,5.42,1.66,6.02.5,10.28,1.68,10.28,5.92Z"/>
    <path class="cls-1" d="M213.05,80.64v-18.41h5.36v18.41h-5.36Z"/>
    <path class="cls-1" d="M244.45,77.17c-1.97,2.45-5.6,4.08-10.52,4.08-7.55,0-12.23-3.58-12.23-9.81s4.68-9.81,12.23-9.81c4.55,0,7.84,1.6,9.76,3.39l-3.92,2.89c-1.58-1.42-3.23-2.05-5.71-2.05-4.47,0-6.92,1.97-6.92,5.57s2.52,5.6,6.99,5.6c2.26,0,4.05-.45,5.34-1.63v-1.66h-6.1v-3.76h11.07v7.18Z"/>
    <path class="cls-1" d="M269.65,62.23v18.41h-4.71l-11.89-12.1v12.1h-5.18v-18.41h5.68l10.91,11.25v-11.25h5.18Z"/>
  </g>
  <rect class="cls-1" x="281.77" y="0" width="6.43" height="80.66"/>
</svg>